<svg xmlns="http://www.w3.org/2000/svg" version="1.0" fill='#000' viewBox="0 0 632 618">
    <path
        d="M195.6 96.5C95.1 112.9 52 235.7 121.1 308.5c6.7 7 6.7 7 1.7 12.5-26 28.6-38.4 64.1-34.8 99.8C98.7 527 224.2 574.3 303.4 501.9c5.6-5.1 5.6-5.1 12.1 1 56.3 52.6 148.7 42.1 192.3-21.7 33.5-49 28.6-115.7-11.5-158.3-6.6-7-6.6-7-1.6-12.2 36.4-37.5 45.8-97.5 22.6-144.2-38.2-76.8-138.8-95.3-202.3-37.3-6.3 5.8-6.3 5.8-13-.5-26.9-25.4-69.2-38.2-106.4-32.2M239 121c14.3 3.4 27.1 9.4 38.5 17.9C284 143.7 407 265.8 407 267.4c0 .6-1.5 2.5-3.2 4.2-3.3 3.3-3.3 3.3-65.3-58.5-74.4-74.2-77.8-76.8-105.5-82.2-89.5-17.4-147.1 90.2-84.2 157.2 3.4 3.7 3.4 3.7-.4 7.3-4.4 4.1-8.7.7-18.9-14.5C77.1 202.9 148.3 99 239 121m176.5-2c78.8 11.3 116.5 99.3 70.7 165-2.7 3.8-31.1 33.1-69.1 71.2-35.5 35.6-65.3 66.2-66.3 68-10.3 19.5 23.6 46.7 55.6 44.5 48.8-3.3 73-61.6 40.4-97.3-5.7-6.2-5.7-6.1-1.4-10.3 3.3-3.2 3.3-3.2 8.9 3 34.8 38.3 15.5 101-35 114-47.1 12-98.5-32.3-74.3-64 1.2-1.4 30.8-31.4 65.9-66.6 67.4-67.7 70.3-70.9 77.4-87.1 12.9-29.3 8.7-65.9-10.5-91.9-33-44.8-98.2-50.9-139.5-13.2-5.4 5-5.4 5-9.1 1.4-3.6-3.7-3.6-3.7.3-7.8 20.9-21.4 55.8-33.2 86-28.9m-179.8 36.5c15.7 5 17.1 6.1 65.8 54.4 85.1 84.4 82.5 81.5 78.2 85.8-3.7 3.8-3.7 3.8-65-57.4-66.2-66.2-63.9-64-72.4-68.2-57.7-28.7-114.5 44.1-71.3 91.2 5.3 5.8 5.3 5.8 1.6 9.5-4.7 4.6-11.3-1.3-19.1-17-27.1-55 24.5-116.6 82.2-98.3m186.3-.3c42.6 13.2 62.3 61.1 41.3 101-3.4 6.7-9.7 13.3-70.4 74.3-36.6 36.8-67.9 68.8-69.5 71-30.4 41.2 16.2 100 79.1 100 81.3-.1 123-92.4 69.5-154.3-6.3-7.4-6.3-7.4-2.6-11 3.7-3.7 3.7-3.7 8.3 1.3 58.8 65.1 20.5 167.3-65.8 175.4-37.8 3.6-79.8-16.7-97.9-47.3-4.5-7.6-6.5-9.1-7.7-5.9-9.1 24.8-47.2 49.7-81.1 53.2-80.1 8.3-138.6-77.2-102.6-150.1 6.9-14.1 10.4-17.9 74.3-82 63.5-63.8 63.5-63.8 66.8-60.6 1.8 1.8 3.3 3.7 3.3 4.2 0 .6-27.5 28.6-61.1 62.1-62 62-67.9 68.4-74.3 81.2-31 62 14.2 134.3 83.9 134.3 63.7 0 109.9-62.8 76.1-103.5-2.2-2.7-15.8-16.8-30.1-31.3-30.1-30.4-27.5-26.9-22.9-31.2 3.5-3.5 3.5-3.5 31.7 25 18.5 18.7 29.9 31 33.1 35.7 5.7 8.8 5.2 8.7 10 1 2.8-4.3 23.9-26.2 71.1-73.7 56.9-57.2 67.6-68.4 70.2-73.5 29.6-58.3-40.9-114.1-91.5-72.4-6.3 5.2-6.3 5.2-9.7 1.9-4.5-4.3-4.6-3.9 3.3-10.5 18.6-15.6 43.3-21 65.2-14.3m-194.8 33.6c4.8 1.6 13.3 7.4 15.1 10.2.9 1.5-47 51-49.3 51-.4 0-2.4-2-4.4-4.5-23-28 4.5-68.3 38.6-56.7m190.6 1.6c21.1 10.7 26 37.3 10.4 56.4-3.6 4.3-3.6 4.3-28.4-20.5-27.6-27.6-26.3-25.7-20.7-30.8 10.4-9.3 26.2-11.4 38.7-5.1M230.2 310.5c-72 72.2-72.3 72.6-73.9 94.9-3.8 54.3 62.9 83.6 101.8 44.7 17-17.1 15-22.2-22.7-60.1-25.4-25.6-25.4-25.6-21.6-29.3s3.8-3.7 27.8 20.5c28.5 28.8 29.7 30.3 34.5 42.3 5.7 14.5-5.1 34.2-25.3 46-51.8 30.6-115.4-15.1-103.4-74.4 4.2-20.7 4.9-21.5 75.5-92.3 61.5-61.8 61.5-61.8 65.3-58.1s3.8 3.7-58 65.8M334.5 291c25 25 25 25-.3 50.3-25.2 25.2-25.2 25.2-50.4 0-25.3-25.3-25.3-25.3-.3-50.3 13.7-13.7 25.2-25 25.5-25s11.8 11.3 25.5 25M243 431.7c0 .7-2.7 3.3-6 5.7-34.9 25.7-75.8-19.4-47.4-52.2 3.7-4.4 3.7-4.4 28.6 20.5 13.6 13.6 24.8 25.4 24.8 26m190.6-38.4c18 35.1-26.4 68.5-55.7 42-4-3.7-4-3.7 21.3-29 28-28.1 26.9-27.7 34.4-13" />
</svg>